<?xml version="1.0" encoding="utf-8"?>
<!-- Generator: Adobe Illustrator 19.2.1, SVG Export Plug-In . SVG Version: 6.00 Build 0)  -->
<svg version="1.1" id="layer" xmlns="http://www.w3.org/2000/svg" xmlns:xlink="http://www.w3.org/1999/xlink" x="0px" y="0px"
	 viewBox="0 0 652 652" style="enable-background:new 0 0 652 652;" xml:space="preserve">
<style type="text/css">
	.st0{fill:#83BD25;}
</style>
<g>
	<path class="st0" d="M78.7,343c0,12.7-5.6,20-15.5,20c-8.2,0-13.5-3.4-19.5-12.5l-2.7-4.1l-14.8,12.7l1.9,3.1
		c8.1,13.3,19.9,20,34.9,20c22.1,0,35.9-15.1,35.9-39.3v-72H78.7V343z"/>
	<path class="st0" d="M221.5,326c0,21.3-15.2,37.3-35.3,37.3c-20.3,0-35.6-16.2-35.6-37.6c0-21.3,15.2-37.3,35.3-37.3
		C206.2,288.4,221.5,304.5,221.5,326 M186.2,269.2c-31.5,0-56.1,25-56.1,56.8c0,32.2,24,56.5,55.8,56.5c31.5,0,56.1-25,56.1-56.8
		C242,293.5,218,269.2,186.2,269.2"/>
	<polygon class="st0" points="474.9,270.9 474.9,343.8 417.6,270.9 400.4,270.9 400.4,380.8 420.2,380.8 420.2,305.9 479.2,380.8 
		494.7,380.8 494.7,270.9 	"/>
	<polygon class="st0" points="606.5,270.9 606.5,343.8 549.1,270.9 532,270.9 532,380.8 551.8,380.8 551.8,305.9 610.7,380.8 
		626.2,380.8 626.2,270.9 	"/>
	<path class="st0" d="M297.8,338.8l18-40.4l14.9,33.7c-5.9,0.8-11.7,2.2-17.4,3.5C308.1,336.8,303,338,297.8,338.8 M367.5,354.5
		l6,2.5l0-6.5l0-12.2l-2.6-1.1c-4.4-1.9-13.4-4-18.6-4.9l-28.1-62.1h-16.3L277,338.5c-3.5-0.9-7.6-2.4-10.7-3.7l-6-2.5v6.5V351
		l2.6,1.1c2.1,0.9,4.5,1.9,6.7,2.7l-11.7,25.9h21.2l10.4-23.2c9-0.3,17.6-2.3,25.9-4.2c7.9-1.8,15.4-3.6,23.1-4l13.9,31.4h21.8
		l-12.7-28.1C364.2,353.4,366.5,354.1,367.5,354.5"/>
</g>
</svg>
