<?xml version="1.0" standalone="no"?>
<!DOCTYPE svg PUBLIC "-//W3C//DTD SVG 20010904//EN"
 "http://www.w3.org/TR/2001/REC-SVG-20010904/DTD/svg10.dtd">
<svg version="1.0" xmlns="http://www.w3.org/2000/svg"
 width="350.000000pt" height="262.000000pt" viewBox="0 0 350.000000 262.000000"
 preserveAspectRatio="xMidYMid meet">

<g transform="translate(0.000000,262.000000) scale(0.100000,-0.100000)"
fill="#000000" stroke="none">
<path d="M915 2533 c-38 -8 -99 -27 -135 -42 -54 -22 -65 -31 -68 -53 -10 -85
164 -288 313 -365 94 -48 172 -73 232 -73 24 0 92 16 152 35 148 48 180 47
236 -7 l44 -43 3 -123 c4 -144 11 -139 -128 -91 -113 40 -208 48 -290 24 -204
-59 -340 -209 -400 -443 -35 -133 -37 -340 -5 -484 57 -254 166 -479 302 -622
130 -137 242 -159 419 -83 47 21 94 37 104 37 10 0 47 -16 82 -36 72 -40 102
-41 154 -4 45 32 81 35 149 11 73 -25 93 -26 154 -5 98 33 191 146 286 346
105 219 140 367 148 618 4 137 2 196 -11 269 -42 243 -169 419 -325 452 -80
17 -156 4 -344 -58 -93 -30 -171 -52 -175 -49 -16 17 19 188 60 297 38 100 43
123 42 189 -1 74 -28 195 -46 206 -27 17 -100 -115 -123 -223 -3 -18 -10 -33
-13 -33 -4 0 -18 20 -30 44 -33 61 -126 156 -200 204 -165 107 -391 147 -587
105z m283 -59 c198 -40 373 -161 457 -316 l27 -50 -30 16 c-49 25 -117 19
-227 -20 -122 -43 -188 -46 -273 -11 -130 52 -291 185 -346 286 l-27 50 36 16
c105 43 257 55 383 29z m655 -268 c0 -45 -7 -76 -27 -121 -15 -33 -38 -96 -51
-140 l-24 -80 0 57 c-1 66 19 168 56 291 30 101 45 98 46 -7z m505 -442 c98
-49 175 -165 219 -331 23 -86 26 -118 26 -268 1 -190 -13 -284 -65 -448 -36
-115 -140 -332 -192 -399 -69 -90 -151 -117 -247 -82 -67 24 -118 21 -170 -9
-25 -15 -53 -27 -62 -27 -8 0 -38 14 -66 31 -69 43 -106 42 -216 -6 -148 -64
-233 -52 -340 46 -124 114 -261 386 -311 619 -26 118 -26 357 0 455 61 236
215 385 407 394 65 2 95 -2 205 -35 177 -51 206 -50 414 19 200 67 189 64 276
66 57 1 80 -4 122 -25z"/>
</g>
</svg>
