<?xml version="1.0" encoding="utf-8"?>
<!-- Generator: Adobe Illustrator 19.2.1, SVG Export Plug-In . SVG Version: 6.00 Build 0)  -->
<svg version="1.1" id="layer" xmlns="http://www.w3.org/2000/svg" xmlns:xlink="http://www.w3.org/1999/xlink" x="0px" y="0px"
	 viewBox="0 0 652 652" style="enable-background:new 0 0 652 652;" xml:space="preserve">
<style type="text/css">
	.st0{fill:#E2231A;}
	.st1{clip-path:url(#SVGID_2_);fill:url(#SVGID_3_);}
	.st2{clip-path:url(#SVGID_5_);fill:url(#SVGID_6_);}
</style>
<g>
	<path class="st0" d="M66.5,386.2h7.1c-1.6-3.8-2.9-7.8-3.9-11.9C57,325,86.8,274.9,136,262.3c41.5-10.6,81.4,8.2,100.4,43.9
		l13.2-4.7c-17.6-48.3-69.2-76.4-120.1-63.4c-54.2,13.8-86.8,68.9-73,123.1C58.8,370.2,62.2,378.5,66.5,386.2"/>
	<path class="st0" d="M25.1,386.2h28.2c-3.8-7.3-6.8-15.1-8.9-23.4c-14.9-58.3,17.4-119.5,80.8-134.3c15.5-3.6,32.2-3.1,47.4-0.1
		c1,0.2,1.8-2.1,0-2.8c-20.8-6.7-43.6-6.6-66.4-0.8C42.3,241.1,3.6,306.3,19.9,370.4C21.3,375.9,23.1,381.1,25.1,386.2"/>
</g>
<g>
	<defs>
		<path id="SVGID_1_" d="M106.3,224.7c-54.1,13.8-90.1,62.4-90.2,115.8v0.5c0,9.7,1.2,19.6,3.7,29.4c1.4,5.4,3.2,10.7,5.2,15.7h28.2
			c-3.8-7.3-6.8-15.1-8.9-23.4c-2.4-9.6-3.6-19.2-3.6-28.7c0.1-48.4,31.4-93.2,84.4-105.6c7.5-1.7,15.2-2.5,22.9-2.5
			c8.3,0,16.6,0.9,24.5,2.5l0.1,0c0.5,0,1-0.7,1-1.4c0-0.6-0.3-1.1-1.1-1.4c-10.7-3.5-22-5.1-33.5-5.1
			C128.4,220.5,117.4,221.9,106.3,224.7"/>
	</defs>
	<clipPath id="SVGID_2_">
		<use xlink:href="#SVGID_1_"  style="overflow:visible;"/>
	</clipPath>
	
		<linearGradient id="SVGID_3_" gradientUnits="userSpaceOnUse" x1="-462.1596" y1="707.3701" x2="-457.4463" y2="707.3701" gradientTransform="matrix(1.1089 37.226 37.226 -1.1089 -25727.498 18211.3223)">
		<stop  offset="0" style="stop-color:#C8C9CA"/>
		<stop  offset="2.921318e-003" style="stop-color:#C9CACB"/>
		<stop  offset="8.832433e-002" style="stop-color:#E1E1E2"/>
		<stop  offset="0.1787" style="stop-color:#F2F2F2"/>
		<stop  offset="0.2774" style="stop-color:#FCFCFC"/>
		<stop  offset="0.3989" style="stop-color:#FFFFFF"/>
		<stop  offset="1" style="stop-color:#FFFFFF"/>
	</linearGradient>
	<polygon class="st1" points="173.7,215.8 178.7,386 16.3,390.9 11.2,220.6 	"/>
</g>
<g>
	<path class="st0" d="M53.4,386.2H25.1c-2.1-5.1-3.8-10.3-5.2-15.7c-2.6-10-3.8-20.1-3.7-29.9c0.1-53.4,36.1-102,90.2-115.8
		c11-2.8,22.1-4.3,32.9-4.3c11.5,0,22.8,1.7,33.5,5.1c0.8,0.3,1.1,0.9,1.1,1.4c0,0.7-0.4,1.4-1,1.4l-0.1,0
		c-7.9-1.6-16.2-2.5-24.5-2.5c-7.7,0-15.4,0.8-22.9,2.5c-53,12.4-84.2,57.2-84.4,105.6c0,9.5,1.1,19.1,3.6,28.7
		C46.6,371.1,49.6,378.9,53.4,386.2"/>
</g>
<g>
	<defs>
		<path id="SVGID_4_" d="M129.6,238.1c-45.7,11.7-76.1,52.7-76.2,97.8c0,8.3,1,16.8,3.2,25.3c2.3,9,5.6,17.3,9.9,25h7.1
			c-1.6-3.8-2.9-7.8-3.9-11.9c-2-7.7-2.9-15.4-2.9-23c0.1-41,27.7-78.3,69.3-88.9c7.8-2,15.5-2.9,23.1-2.9
			c32.7,0,61.9,17.9,77.3,46.8l13.2-4.7c-14.7-40.3-53.1-66.5-95-66.5C146.4,235,138,236,129.6,238.1"/>
	</defs>
	<clipPath id="SVGID_5_">
		<use xlink:href="#SVGID_4_"  style="overflow:visible;"/>
	</clipPath>
	
		<linearGradient id="SVGID_6_" gradientUnits="userSpaceOnUse" x1="-467.6967" y1="692.5999" x2="-462.9833" y2="692.5999" gradientTransform="matrix(-37.5302 15.6181 15.6181 37.5302 -28142.1172 -18410.0391)">
		<stop  offset="0" style="stop-color:#C8C9CA"/>
		<stop  offset="2.921318e-003" style="stop-color:#C9CACB"/>
		<stop  offset="8.832433e-002" style="stop-color:#E1E1E2"/>
		<stop  offset="0.1787" style="stop-color:#F2F2F2"/>
		<stop  offset="0.2774" style="stop-color:#FCFCFC"/>
		<stop  offset="0.3989" style="stop-color:#FFFFFF"/>
		<stop  offset="0.5809" style="stop-color:#FCFCFC"/>
		<stop  offset="0.7301" style="stop-color:#F2F2F2"/>
		<stop  offset="0.8673" style="stop-color:#E1E1E2"/>
		<stop  offset="0.9973" style="stop-color:#C9CACB"/>
		<stop  offset="1" style="stop-color:#C8C9CA"/>
	</linearGradient>
	<polygon class="st2" points="303.3,363.9 82.3,455.8 -0.3,257.3 220.7,165.3 	"/>
</g>
<g>
	<path class="st0" d="M73.6,386.2h-7.1c-4.3-7.7-7.6-16-9.9-25c-2.2-8.5-3.2-16.9-3.2-25.3c0.1-45.1,30.5-86.1,76.2-97.8
		c8.4-2.1,16.8-3.2,25.1-3.2c41.9,0,80.4,26.2,95,66.5l-13.2,4.7c-15.4-29-44.6-46.8-77.3-46.8c-7.6,0-15.3,1-23.1,2.9
		c-41.6,10.6-69.2,47.9-69.3,88.9c0,7.6,0.9,15.3,2.9,23C70.7,378.4,72,382.3,73.6,386.2"/>
	<rect x="294.6" y="407.3" width="8.9" height="34.9"/>
	<path d="M310.8,417.7c0-4-0.1-7.4-0.3-10.4h7.7l0.4,5.2h0.2c1.5-2.7,5.3-6,11.1-6c6.1,0,12.4,3.9,12.4,15v20.7h-8.8v-19.7
		c0-5-1.9-8.8-6.7-8.8c-3.5,0-5.9,2.5-6.9,5.2c-0.3,0.8-0.4,1.9-0.4,2.9v20.5h-8.9"/>
	<path d="M348,434.1c2,1.2,5.8,2.5,9,2.5c3.9,0,5.6-1.6,5.6-3.9c0-2.4-1.4-3.6-5.7-5.1c-6.8-2.4-9.7-6.1-9.6-10.2
		c0-6.2,5.1-11,13.2-11c3.9,0,7.2,1,9.2,2.1l-1.7,6.2c-1.5-0.9-4.3-2-7.4-2c-3.2,0-4.9,1.5-4.9,3.7c0,2.2,1.6,3.3,6.1,4.9
		c6.3,2.3,9.2,5.5,9.3,10.7c0,6.3-4.9,11-14.2,11c-4.2,0-8-1.1-10.6-2.5"/>
	<path d="M407.5,431.8c0,4.2,0.1,7.6,0.3,10.5H400l-0.4-5.3h-0.1c-1.5,2.5-4.9,6.1-11.2,6.1c-6.4,0-12.2-3.8-12.2-15.2v-20.5h8.8v19
		c0,5.8,1.9,9.5,6.5,9.5c3.5,0,5.8-2.5,6.7-4.7c0.3-0.8,0.5-1.7,0.5-2.7v-21.1h8.8"/>
	<path d="M414.8,418.6c0-4.7-0.1-8.1-0.3-11.3h7.7l0.3,6.7h0.3c1.7-4.9,5.8-7.5,9.5-7.5c0.9,0,1.4,0.1,2.1,0.2v8.3
		c-0.7-0.1-1.5-0.3-2.6-0.3c-4.2,0-7.1,2.7-7.9,6.7c-0.1,0.8-0.3,1.7-0.3,2.7v18.1h-8.8"/>
	<path d="M464.7,433.9c0,3.2,0.1,6.2,0.5,8.4h-8l-0.6-3.9h-0.2c-2.2,2.7-5.8,4.7-10.3,4.7c-7,0-11-5.1-11-10.4
		c0-8.8,7.8-13.3,20.7-13.2v-0.6c0-2.3-0.9-6.1-7.1-6.1c-3.4,0-7,1.1-9.4,2.6l-1.7-5.7c2.6-1.6,7.1-3.1,12.6-3.1
		c11.2,0,14.4,7.1,14.4,14.7 M456.1,425.2c-6.2-0.1-12.2,1.2-12.2,6.5c0,3.4,2.2,5,5,5c3.5,0,6.1-2.3,6.9-4.8
		c0.2-0.6,0.3-1.4,0.3-1.9V425.2z"/>
	<path d="M470.3,417.7c0-4-0.1-7.4-0.3-10.4h7.7l0.4,5.2h0.2c1.5-2.7,5.3-6,11.1-6c6.1,0,12.4,3.9,12.4,15v20.7h-8.8v-19.7
		c0-5-1.9-8.8-6.7-8.8c-3.5,0-5.9,2.5-6.9,5.2c-0.3,0.8-0.4,1.9-0.4,2.9v20.5h-8.9"/>
	<path d="M534.8,441.2c-1.9,0.9-5.5,1.9-9.9,1.9c-10.9,0-18-7-18-17.8c0-10.5,7.2-18.6,19.4-18.6c3.2,0,6.5,0.7,8.5,1.6l-1.6,6.6
		c-1.4-0.6-3.5-1.4-6.7-1.4c-6.7,0-10.8,4.9-10.7,11.3c0,7.2,4.7,11.3,10.7,11.3c3.1,0,5.2-0.6,7-1.4"/>
	<path d="M545.4,427.3c0.2,6.3,5.2,9,10.8,9c4.1,0,7-0.6,9.7-1.6l1.3,6.1c-3,1.2-7.2,2.2-12.2,2.2c-11.3,0-18-7-18-17.7
		c0-9.7,5.9-18.8,17.1-18.8c11.4,0,15.1,9.3,15.1,17c0,1.6-0.2,2.9-0.3,3.7 M560.7,421.1c0.1-3.2-1.4-8.5-7.2-8.5
		c-5.4,0-7.7,4.9-8.1,8.5H560.7z"/>
	<path d="M105.2,386.2v-8.2l8.5-7.8c16.8-15.6,24.7-24.2,24.8-33.6c0-6.4-3.4-12-12.7-12c-6.3,0-11.7,3.2-15.3,5.9l-4-9.6
		c5.2-4.2,13-7.4,22-7.4c15.8,0,23.5,10,23.5,21.6c0,12.5-9,22.6-21.4,34.2l-6.3,5.4v0.2h29.4v11.2"/>
	<polyline points="172.1,326.9 171.9,326.9 158.8,333.5 156.5,323.3 173.9,314.7 185.2,314.7 185.2,386.2 172.1,386.2 	"/>
	<path d="M196.9,373.8c3.1,1.9,8.9,3.8,13.7,3.8c5.9,0,8.6-2.4,8.6-5.9c0-3.6-2.2-5.5-8.8-7.8c-10.4-3.6-14.8-9.3-14.7-15.6
		c0-9.5,7.8-16.8,20.2-16.8c5.9,0,11.1,1.5,14.2,3.2l-2.6,9.6c-2.3-1.3-6.6-3.1-11.3-3.1c-4.8,0-7.5,2.3-7.5,5.6
		c0,3.4,2.5,5.1,9.3,7.5c9.7,3.5,14.2,8.5,14.3,16.4c0,9.7-7.6,16.8-21.8,16.8c-6.5,0-12.3-1.6-16.3-3.8"/>
	<path d="M255.6,318.9v13.7h12.9v10.1h-12.9v23.6c0,6.5,1.8,9.9,6.9,9.9c2.5,0,3.7-0.2,5.3-0.7L268,386c-2,0.8-5.5,1.4-9.8,1.4
		c-4.9,0-9.1-1.8-11.7-4.5c-2.9-3.1-4.2-7.9-4.2-15v-25.2h-7.7v-10.1h7.7v-9.9"/>
	<path d="M344.5,384c-3.2,1.6-10.2,3.4-19.1,3.4c-23.5,0-37.8-14.8-37.8-37.4c0-24.4,16.9-39.1,39.6-39.1c8.9,0,15.3,1.9,18,3.3
		l-3,10.8c-3.5-1.5-8.4-2.9-14.5-2.9c-15.1,0-25.9,9.5-25.9,27.3c0,16.3,9.6,26.7,25.8,26.7c5.5,0,11.2-1.1,14.7-2.7"/>
	<path d="M360,363.2c0.3,9.7,7.9,13.8,16.5,13.8c6.3,0,10.8-0.9,14.8-2.4l2,9.3c-4.6,1.9-11,3.4-18.7,3.4
		c-17.4,0-27.6-10.8-27.6-27.1c0-14.8,9-28.8,26.2-28.8c17.5,0,23.1,14.3,23.1,26.1c0,2.5-0.2,4.5-0.4,5.7 M383.5,353.8
		c0.1-4.9-2.1-13.1-11.1-13.1c-8.4,0-11.9,7.6-12.4,13.1H383.5z"/>
	<path d="M402.7,348.6c0-6.2-0.1-11.3-0.4-15.9h11.9l0.7,8h0.3c2.3-4.2,8.1-9.2,17-9.2c9.3,0,19,6,19,23v31.8h-13.5v-30.2
		c0-7.7-2.9-13.5-10.2-13.5c-5.4,0-9.1,3.8-10.5,7.9c-0.4,1.2-0.5,2.9-0.5,4.4v31.4h-13.6"/>
	<path d="M475.6,318.9v13.7h12.9v10.1h-12.9v23.6c0,6.5,1.8,9.9,6.9,9.9c2.5,0,3.7-0.2,5.3-0.7L488,386c-2,0.8-5.5,1.4-9.8,1.4
		c-4.9,0-9.1-1.8-11.7-4.5c-2.9-3.1-4.2-7.9-4.2-15v-25.2h-7.7v-10.1h7.7v-9.9"/>
	<path d="M543.3,370.1c0,6.4,0.2,11.7,0.4,16h-11.9l-0.7-8.1H531c-2.3,3.8-7.6,9.3-17.1,9.3c-9.8,0-18.7-5.8-18.7-23.3v-31.4h13.5
		v29.1c0,8.9,2.9,14.6,10,14.6c5.4,0,8.9-3.8,10.3-7.3c0.4-1.2,0.8-2.6,0.8-4.2v-32.3h13.5"/>
	<path d="M552.7,349.9c0-7.3-0.1-12.4-0.4-17.3H564l0.4,10.2h0.4c2.6-7.6,8.9-11.4,14.6-11.4c1.3,0,2.1,0.1,3.2,0.3v12.7
		c-1.1-0.2-2.3-0.4-4-0.4c-6.5,0-10.9,4.2-12.1,10.2c-0.2,1.2-0.4,2.6-0.4,4.2v27.7h-13.5"/>
	<path d="M601.1,332.6l9.7,28.7c1.1,3.3,2.2,7.4,3,10.4h0.3c0.9-3.1,1.9-7,2.9-10.5l8.4-28.6h14.5l-13.4,36.5
		c-7.4,20-12.3,28.9-18.7,34.4c-5.3,4.7-10.8,6.5-14.2,6.9l-3.1-11.4c2.3-0.6,5.2-1.8,7.9-3.7c2.5-1.6,5.5-4.8,7.4-8.5
		c0.6-1,0.9-1.8,0.9-2.4c0-0.6-0.1-1.3-0.8-2.6l-19.6-49.1"/>
</g>
</svg>
