<?xml version="1.0" encoding="UTF-8" standalone="no"?>
<svg xmlns:rdf="http://www.w3.org/1999/02/22-rdf-syntax-ns#" xmlns="http://www.w3.org/2000/svg" enable-background="new 0 0 189.453 69.606" xml:space="preserve" height="69.606px" viewBox="0 0 189.453 69.606" width="189.45px" version="1.1" y="0px" x="0px" xmlns:cc="http://creativecommons.org/ns#" xmlns:dc="http://purl.org/dc/elements/1.1/"><path d="m171.04 0.0097656c-0.26 0.013538-0.53 0.042093-0.82 0.085937-5.85 0.906-8.97 7.144-10.71 12.209-2.21 6.442-1.53 13.503-0.55 20.119 0.37 2.462 0.2 3.164-1.01 5.34-0.82 1.469-1.92 2.842-3.14 3.994-2.58 2.426-6.8 3.646-9.27 0.326-2.79-3.755-2.91-12.956 1.02-16.063 0.78-0.617 2.41-1.379 3.14-0.226 0.9 1.436-0.22 3.227-1.1 4.353-0.81 1.05-1.67 1.895-2.74 2.666-1.95 1.411-0.17 2.582 1.57 1.694 3.86-1.976 10.07-12.188 2.56-13.192-8.36-1.118-9.6 9.802-9.8 15.553-0.03 0.958-2.9 5.118-4.05 3.711-1.3-1.58-0.4-5.309-0.15-7.031 0.14-1.233 0.65-3.054-0.28-4.121-1.21-1.409-2.99-0.063-3.69 1.086-2.13 3.484-4.1 7.221-7 10.144-1.98 1.998-4.73 3.149-4.27-0.844 0.38-3.291 1.61-6.851 3.31-9.664 1.39-2.293 3.96-5.803 7.12-4.865 1.33 0.393 4.44 4.384 4.44 0.688-0.1-2.983-2.38-4.657-5.18-4.356-3.37 0.363-6.31 3.402-8.15 6.059-2.31 3.344-8.09 13.099-4.55 16.937 2.21 2.398 6.13-0.046 7.94-1.677 2.07-1.87 3.46-4.451 5.44-6.305 0.72 2.202 0.29 4.517 2.7 5.898 1.12 0.645 2.54 0.737 3.76 0.323 1.23-0.417 2.4-2.197 3.5-2.413 0.4 0.231 0.73 1.676 0.97 2.057 0.57 0.895 1.29 1.688 2.15 2.316 1.72 1.264 3.88 1.766 5.98 1.51 2.42-0.294 4.78-1.527 6.6-3.109 1.43-1.236 2.07-3.197 3.46-4.381 2.17 3.859 2.82 8.099 5.87 11.58 1.1 1.259 2.48 2.552 3.97 3.322 0.66 0.341 1.88 1.01 2.62 0.481 0.72-0.508 0.24-1.272-0.34-1.541-5.25-2.396-7.11-11.008-8.27-16.125-1.8-7.982-3.54-16.5-1.17-24.604 0.88-3.0017 2.41-6.8229 5.13-8.6169 3.57-2.344 3.61 3.8499 3.58 5.7989-0.1 7.539-2.98 14.061-6.31 20.66-0.51 1.021 0.18 2.883 1.18 1.449 0.86-0.847 1.34-2.133 1.91-3.189 1.9-3.484 3.58-7.012 4.99-10.719 1.52-3.981 5.68-17.738-2.36-17.318zm-144.51 0.076172c-0.193-0.00658-0.389-0.004485-0.588 0.005859-6.302 0.337-9.604 8.2188-11.123 13.383-0.901 3.066-1.471 6.216-2.011 9.363-0.208 1.215-0.423 2.429-0.604 3.648-0.206 1.38 0.008 3.356-0.543 4.645-1.653-2.058-2.7617-4.817-4.4277-6.899-2.336-2.921-6.8175-5.618-7.2285-3.662-0.13099 0.624 1.9578 2.224 2.5918 2.91 1.157 1.254 2.0278 2.733 2.8418 4.223 2.066 3.788 3.3152 7.839 4.5746 11.947 0.556 1.813 1.201 6.433 3.882 6.227 2.874-0.234 1.545-7.069 1.418-8.873-0.522-7.401 0.045-15.175 1.924-22.387 0.82-3.148 2.242-6.4864 4.369-8.9744 2.911-3.404 6.986-1.5397 8.987 1.7383 4.106 6.7251 4.61 14.888 6.373 22.365 0.75 3.186 0.659 6.537 1.736 9.654 1.27 3.729 4.254 1.275 4.904-1.4 1.957-8.058 3.525-15.63 7.485-23.021 1.662-3.1 3.677-6.0911 6.886-7.7661 2.372-1.238 6.086-2.197 7.18 1.125 0.797 2.4221 0.122 5.2681-0.377 7.6831-0.686 3.324-1.45 6.636-1.969 9.991-1.137 7.35-1.915 15.588 0.461 22.787 0.889 2.692 2.542 5.175 5.321 6.15 2.66 0.934 6.332-1.937 2.687-2.945-7.072-1.957-6.345-14.735-5.929-20.141 0.416-5.394 1.601-10.564 2.91-15.793 0.892-3.562 2.834-9.7662 0.002-12.937-2.653-2.9722-7.627-1.8477-10.59-0.0607-3.166 1.909-5.667 4.817-7.684 7.8747-4.313 6.541-6.58 14.113-8.797 21.537-1.273-6.564-1.659-12.956-3.838-19.357-1.595-4.684-4.842-12.837-10.824-13.041zm83.477 2.9375c-3.43 0.217-4.44 5.551-5.42 8.1246-1.66 4.344-2.91 8.847-3.8 13.409-1.286 6.561-2.008 15.191-9.397 17.914-9.296 3.427-5.366-12.206-1.817-15.535 1.233-1.156 2.502-1.459 3.686-0.129 0.815 0.916 2.396 2.013 3.467 0.736 0.84-1.001 0.442-2.95-0.329-3.885-1.13-1.369-3.58-1.525-5.168-1.092-3.578 0.975-6.402 4.263-8.037 7.44-1.832 3.563-1.704 7.853-3.711 11.32-1.375 2.376-4.971 4.348-5.904 0.598-0.914-3.675-0.072-8.025 1.309-11.479 0.652-1.63 1.661-3.528 1.33-5.34-0.294-1.609-2.061-2.5-3.481-1.523-2.811 1.931-3.366 7.403-3.642 10.465-0.342 3.804-0.173 8.724 3.275 11.172 3.709 2.635 6.747-0.937 9.49-2.897 2.146 2.924 4.458 3.881 8.168 2.907 4.365-1.145 6.323-4.295 9.405-7.174 0.378 1.683-0.051 6.228 2.296 6.687 2.01 0.393 2.87-4.748 3.37-6.097 1.17-3.152 2.22-6.456 4.67-8.883 2.04-2.024 5.11-3.125 5.02 0.717-0.14 5.819-2.32 11.343-1.79 17.242 0.2 2.219 0.65 4.936 2.39 6.511 2.24 2.023 6.09-0.398 3.17-1.75-3.75-1.734-3.55-7.998-3.25-11.4 0.23-2.64 1.08-5.185 1.87-7.697 0.7-2.189 2.37-5.743 1.17-8.004-2.34-4.388-8.75 0.376-10.85 2.531-1.6 1.643-2.78 3.643-3.59 5.781-0.22 0.563-1.17 4.999-1.67 5.063-0.88-0.94 0.6-6.347 0.77-7.369 0.56-3.43 1.36-6.763 2.48-10.049 1.28-3.729 2.68-7.553 4.33-11.133 0.77-1.6649 4.6-7.4426 0.19-7.1816zm-32.656 12.215c-3.037-0.047-4.6 5.93-1.135 5.93 2.227 0 5.015-4.021 2.515-5.506-0.483-0.287-0.947-0.417-1.38-0.424zm103.04 6.088c-2.55 0.047-5.11 1.78-5.48 4.404-0.83 5.873 6.82 6.679 9.15 10.877 1.24 2.238-0.04 4.486-1.77 6.024-2.16 1.925-5.28 1.962-7.97 1.414-1.72-0.352-3.83-1.093-4.23-3.041-0.24-1.184 0.53-2.172 0.54-3.332 0.01-1.479-1.7-1.47-2.46-0.592-1.62 1.868-0.66 4.974 0.73 6.668 1.52 1.867 4.22 2.892 6.55 3.184 4.48 0.561 13.67-0.904 13.29-7.213-0.27-5.831-5.47-6.922-9.31-10.037-1.78-1.447-2.9-4.408-0.1-5.543 1.1-0.445 2.62-0.367 3.46 0.576 0.35 0.398 1.14 1.864 1.89 0.965 1.57-1.896-1.76-4.005-3.21-4.268-0.36-0.064-0.72-0.093-1.08-0.086zm-144.04 36.463v9.027h1.56v-3.707c0-0.166 0.013-0.329 0.063-0.47 0.178-0.469 0.609-0.873 1.218-0.873 0.862 0 1.194 0.683 1.194 1.572v3.478h1.558v-3.644c0-1.981-1.101-2.678-2.154-2.678-0.393 0-0.761 0.099-1.078 0.279-0.317 0.165-0.586 0.405-0.776 0.698h-0.025v-3.682h-1.56zm57.419 0.266c-0.52 0-0.873 0.367-0.873 0.849 0 0.457 0.341 0.84 0.862 0.84h0.011c0.534 0 0.877-0.383 0.877-0.84-0.012-0.483-0.343-0.849-0.877-0.849zm9.697 0c-0.52 0-0.87 0.367-0.87 0.849 0 0.457 0.34 0.84 0.86 0.84h0.01c0.54 0 0.88-0.383 0.88-0.84-0.02-0.483-0.34-0.849-0.88-0.849zm-35.538 0.078c-2.613 0-4.58 1.69-4.58 4.506 0 2.603 1.649 4.302 4.363 4.302 1.039 0 1.853-0.201 2.221-0.38l-0.256-1.233c-0.418 0.176-1.078 0.305-1.7 0.305-1.89 0-2.978-1.195-2.978-3.071 0-2.056 1.254-3.148 2.992-3.148 0.698 0 1.268 0.152 1.674 0.33l0.33-1.244c-0.317-0.167-1.039-0.367-2.066-0.367zm-43.166 0.125l2.093 8.556h1.688l0.988-4.023c0.253-0.977 0.419-1.803 0.559-2.715h0.025c0.114 0.926 0.268 1.738 0.483 2.703l0.888 4.035h1.662l2.311-8.556h-1.586l-0.889 3.859c-0.229 1.053-0.432 2.02-0.584 2.971h-0.023c-0.128-0.927-0.318-1.879-0.522-2.893l-0.849-3.937h-1.637l-0.926 3.859c-0.242 1.091-0.484 2.109-0.623 3.01h-0.025c-0.14-0.85-0.344-1.943-0.559-2.982l-0.812-3.887h-1.662zm94.744 0v8.556h1.56v-3.769h3.62v3.769h1.56v-8.556h-1.56v3.428h-3.62v-3.428h-1.56zm-29.188 0.789l-1.535 0.43v1.156h-0.875v1.17h0.875v2.892c0 0.811 0.154 1.385 0.494 1.739 0.294 0.318 0.763 0.507 1.346 0.507 0.483 0 0.9-0.077 1.129-0.166l-0.026-1.177c-0.177 0.05-0.33 0.06-0.609 0.06-0.597 0-0.799-0.378-0.799-1.14v-2.715h1.485v-1.17h-1.485v-1.586zm17.398 0l-1.53 0.43v1.156h-0.88v1.17h0.88v2.892c0 0.811 0.15 1.385 0.49 1.739 0.29 0.318 0.76 0.507 1.35 0.507 0.48 0 0.9-0.077 1.13-0.166l-0.03-1.177c-0.18 0.05-0.33 0.06-0.61 0.06-0.59 0-0.8-0.378-0.8-1.14v-2.715h1.49v-1.17h-1.49v-1.586zm-23.314 1.443c-0.977 0-1.773 0.267-2.23 0.545l0.303 1.02c0.419-0.267 1.053-0.459 1.662-0.459 1.091 0 1.254 0.673 1.254 1.078v0.103c-2.282-0.014-3.665 0.786-3.665 2.336 0 0.94 0.698 1.838 1.94 1.838 0.812 0 1.459-0.34 1.828-0.822h0.039l0.113 0.685h1.409c-0.076-0.38-0.102-0.926-0.102-1.484v-2.225c0-1.358-0.572-2.615-2.551-2.615zm45.824 0c-0.98 0-1.78 0.267-2.24 0.545l0.31 1.02c0.42-0.267 1.05-0.459 1.66-0.459 1.09 0 1.26 0.673 1.26 1.078v0.103c-2.29-0.014-3.67 0.786-3.67 2.336 0 0.94 0.7 1.838 1.94 1.838 0.81 0 1.46-0.34 1.83-0.822h0.03l0.12 0.685h1.41c-0.08-0.38-0.1-0.926-0.1-1.484v-2.225c0-1.358-0.57-2.615-2.55-2.615zm-76.972 0.002c-0.672 0-1.394 0.447-1.699 1.311h-0.039l-0.063-1.17h-1.346c0.038 0.546 0.051 1.156 0.051 1.992v4.189h1.561v-3.21c0-0.166 0.014-0.33 0.039-0.469 0.14-0.711 0.658-1.182 1.394-1.182 0.191 0 0.331 0.013 0.471 0.037v-1.461c-0.128-0.024-0.216-0.037-0.369-0.037zm21.045 0c-0.672 0-1.396 0.447-1.701 1.311h-0.038l-0.064-1.17h-1.344c0.038 0.546 0.051 1.156 0.051 1.992h-0.002v4.189h1.561v-3.21c0-0.166 0.014-0.33 0.039-0.469 0.14-0.711 0.66-1.182 1.396-1.182 0.19 0 0.33 0.013 0.471 0.037v-1.461c-0.128-0.024-0.216-0.037-0.369-0.037zm63.667 0c-0.94 0-1.67 0.394-2.12 1.092h-0.03l-0.07-0.953h-1.37c0.02 0.585 0.05 1.246 0.05 2.058v6.637h1.56v-3.197h0.02c0.32 0.494 0.97 0.822 1.74 0.822 1.41 0 2.82-1.076 2.82-3.31 0-1.929-1.18-3.149-2.6-3.149zm7.42 0c-0.94 0-1.66 0.394-2.12 1.092h-0.02l-0.08-0.953h-1.37c0.03 0.585 0.05 1.246 0.05 2.058v6.637h1.56v-3.197h0.03c0.31 0.494 0.96 0.822 1.74 0.822 1.4 0 2.81-1.076 2.81-3.31 0-1.929-1.18-3.149-2.6-3.149zm19.81 0c-1.43 0-2.33 0.84-2.33 1.932 0 0.737 0.5 1.397 1.7 1.803 0.76 0.278 1.01 0.479 1.01 0.9 0 0.404-0.3 0.695-0.99 0.695-0.55 0-1.22-0.24-1.57-0.455l-0.32 1.141c0.46 0.254 1.13 0.433 1.88 0.433 1.64 0 2.51-0.812 2.51-1.941-0.01-0.914-0.52-1.486-1.64-1.881-0.79-0.291-1.08-0.467-1.08-0.861 0-0.38 0.3-0.66 0.86-0.66 0.54 0 1.05 0.204 1.31 0.355l0.31-1.092c-0.36-0.203-0.96-0.369-1.65-0.369zm-118.96 0.002c-1.979 0-3.019 1.612-3.019 3.326 0 1.891 1.179 3.121 3.183 3.121 0.887 0 1.624-0.164 2.157-0.392l-0.229-1.069c-0.482 0.166-0.99 0.282-1.713 0.282-0.988 0-1.863-0.484-1.902-1.6h4.135c0.026-0.138 0.052-0.367 0.052-0.658 0-1.359-0.661-3.01-2.664-3.01zm10.953 0c-1.979 0-3.019 1.612-3.019 3.326 0 1.891 1.18 3.121 3.185 3.121 0.887 0 1.624-0.164 2.157-0.392l-0.231-1.069c-0.482 0.166-0.987 0.282-1.711 0.282-0.988 0-1.863-0.484-1.902-1.6h4.135c0.026-0.138 0.05-0.367 0.05-0.658 0-1.359-0.66-3.01-2.664-3.01zm21.045 0c-1.979 0-3.019 1.612-3.019 3.326 0 1.891 1.179 3.121 3.183 3.121 0.887 0 1.624-0.164 2.157-0.392l-0.229-1.069c-0.483 0.166-0.99 0.282-1.713 0.282-0.988 0-1.863-0.484-1.902-1.6h4.137c0.026-0.138 0.05-0.367 0.05-0.658 0-1.359-0.661-3.01-2.664-3.01zm73.662 0c-1.98 0-3.02 1.612-3.02 3.326 0 1.891 1.18 3.121 3.19 3.121 0.89 0 1.62-0.164 2.15-0.392l-0.22-1.069c-0.49 0.166-0.99 0.282-1.72 0.282-0.99 0-1.86-0.484-1.9-1.6h4.14c0.02-0.138 0.05-0.367 0.05-0.658 0-1.359-0.66-3.01-2.67-3.01zm7.32 0c-1.02 0-1.7 0.584-1.97 1.067h-0.04l-0.08-0.928h-1.35c0.02 0.533 0.04 1.132 0.04 1.842v4.339h1.56v-3.642c0-0.178 0.03-0.369 0.08-0.496 0.16-0.47 0.6-0.912 1.22-0.912 0.85 0 1.18 0.672 1.18 1.56v3.49h1.56v-3.668c0-1.955-1.12-2.652-2.2-2.652zm-66.232 0.137v6.183h1.561v-6.183h-1.561zm9.702 0v6.183h1.56v-6.183h-1.56zm7.05 0l2.27 5.674c0.06 0.155 0.08 0.241 0.08 0.304 0 0.075-0.04 0.165-0.09 0.28-0.22 0.419-0.57 0.786-0.86 0.978-0.32 0.227-0.64 0.369-0.91 0.432l0.36 1.306c0.38-0.051 1.01-0.255 1.64-0.787 0.72-0.635 1.29-1.662 2.14-3.972l1.55-4.215h-1.66l-0.97 3.303c-0.13 0.392-0.24 0.861-0.33 1.203h-0.03c-0.09-0.341-0.23-0.811-0.36-1.192l-1.1-3.312v-0.002h-1.73zm-14.197 0.002l2.295 6.181h1.533l2.359-6.181h-1.64l-0.985 3.137c-0.166 0.558-0.305 1.038-0.417 1.546h-0.04c-0.113-0.508-0.24-1-0.418-1.546l-1.003-3.137h-1.684zm-49.393 0.926c1.04 0 1.295 0.939 1.282 1.509h-2.715c0.064-0.634 0.469-1.509 1.433-1.509zm10.955 0c1.039 0 1.293 0.939 1.28 1.509h-2.713c0.063-0.634 0.468-1.509 1.433-1.509zm21.043 0c1.04 0 1.295 0.939 1.282 1.509h-2.715c0.063-0.634 0.469-1.509 1.433-1.509zm73.662 0c1.04 0 1.3 0.939 1.29 1.509h-2.72c0.07-0.634 0.47-1.509 1.43-1.509zm-14.36 0.168c1 0 1.53 0.886 1.53 1.978 0 1.218-0.58 2.043-1.57 2.043-0.67 0-1.22-0.457-1.38-1.09-0.03-0.141-0.04-0.279-0.04-0.431v-0.954c0-0.127 0.02-0.265 0.05-0.392 0.16-0.684 0.76-1.154 1.41-1.154zm7.42 0c1.01 0 1.54 0.886 1.54 1.978 0 1.218-0.59 2.043-1.58 2.043-0.67 0-1.21-0.457-1.38-1.09-0.03-0.141-0.04-0.279-0.04-0.431v-0.954c0-0.127 0.03-0.265 0.05-0.392 0.17-0.684 0.76-1.154 1.41-1.154zm-59.434 2.068v0.848c0 0.115-0.001 0.228-0.041 0.341-0.15 0.445-0.594 0.854-1.229 0.854-0.495 0-0.889-0.283-0.889-0.891 0-0.939 1.054-1.164 2.159-1.152zm45.814 0v0.848c0 0.115 0 0.228-0.03 0.341-0.16 0.445-0.6 0.854-1.24 0.854-0.49 0-0.88-0.283-0.88-0.891 0-0.939 1.05-1.164 2.15-1.152z"/></svg>
