<?xml version="1.0" encoding="UTF-8"?>
<svg version="1.1" viewBox="0 0 222 42" xml:space="preserve" xmlns="http://www.w3.org/2000/svg" xmlns:cc="http://creativecommons.org/ns#" xmlns:dc="http://purl.org/dc/elements/1.1/" xmlns:rdf="http://www.w3.org/1999/02/22-rdf-syntax-ns#"><metadata><rdf:RDF><cc:Work rdf:about=""><dc:format>image/svg+xml</dc:format><dc:type rdf:resource="http://purl.org/dc/dcmitype/StillImage"/><dc:title/></cc:Work></rdf:RDF></metadata><style type="text/css">
	.st0{fill:none;}
	.st1{fill:#FF6900;}
</style><rect class="st0" y="-38.6" width="254.6" height="80.6" fill="none"/><path class="st1" d="m29.4 5.7 9.8 12.3-3.5 15.4-14.2 6.8-14.2-6.8-3.5-15.3 9.9-12.4zm-7.9-5.7-17.2 8.3-4.3 18.7 11.9 15h19.1l11.9-15-4.3-18.7zm2.3 21.8c1.7 0 2.7-0.1 3.2-0.6 0.2-0.2 0.4-0.6 0.4-1s-0.1-0.7-0.4-1c-0.4-0.4-1.3-0.5-3.2-0.5h-7.1v3.1zm7.6 6.9h-5.2l-5-4.2h-4.4v4.2h-3.7v-13.1h10.8c3.9 0 5.3 0.5 6.2 1.4 0.8 0.8 1 2 1 3s-0.2 2.1-1.1 3c-0.7 0.7-1.8 1.2-4 1.4zm64.3 3.1h25v-4.4h-19.6v-3.2h14.1v-4.1h-14.1v-3.2h19.6v-4.4h-25zm100.7-4.4v-14.9h-5.5v19.3h25.1v-4.4zm-20.3-14.9h-8.1l-10.6 19.3h5.9l2.1-3.9h13l2.1 3.9h6.1zm-8.5 11.3 4.3-8.1 4.3 8.1zm-89.3-2.2c2.5 0 4-0.2 4.7-0.9 0.4-0.4 0.6-0.9 0.6-1.5s-0.2-1.1-0.6-1.5c-0.6-0.6-1.8-0.7-4.7-0.7h-10.5v4.6zm11.1 10.2-7.7 0.1-7.4-6.2h-6.5v6.2h-5.5v-19.4h15.9c5.8 0 7.8 0.7 9.2 2.1 1.2 1.2 1.5 2.9 1.5 4.4s-0.3 3.1-1.6 4.4c-1.1 1.1-2.7 1.8-6 2.1zm47.5-4.3c-2.3 0-3.3-0.4-4.1-1-1.1-0.8-1.7-2.5-1.7-4.3s0.6-3.5 1.7-4.3c0.8-0.6 1.8-1 4.1-1h15.8v-4.4h-15.8c-4.6 0-6.4 0.5-8.1 1.9-2.1 1.8-3.2 4.2-3.2 7.7s1.1 5.9 3.2 7.7c1.7 1.5 3.5 1.9 8.1 1.9h15.8v-11.6h-13.5v4.1h8v3.2h-10.3z" fill="#ff6900"/><path class="st1" d="m218.5 30.6h-0.4v1.2h-0.4v-1.2h-0.4v-0.2h1.2z" fill="#ff6900"/><path class="st1" d="m220.4 31.8h-0.3v-0.8l-0.3 0.8h-0.2l-0.3-0.8v0.8h-0.3v-1.4h0.3l0.4 1 0.4-1h0.3z" fill="#ff6900"/></svg>
