<?xml version="1.0" encoding="utf-8"?>
<!-- Generator: Adobe Illustrator 19.2.1, SVG Export Plug-In . SVG Version: 6.00 Build 0)  -->
<svg version="1.1" id="layer" xmlns="http://www.w3.org/2000/svg" xmlns:xlink="http://www.w3.org/1999/xlink" x="0px" y="0px"
	 viewBox="0 0 652 652" style="enable-background:new 0 0 652 652;" xml:space="preserve">
<style type="text/css">
	.st0{fill:#0B0000;}
	.st1{fill:#7FBDEB;}
	.st2{fill:#231815;}
</style>
<polygon class="st0" points="80.8,267.2 36.3,267.2 36.3,251.2 144.7,251.2 144.7,267.2 99.9,267.2 99.9,397.6 80.8,397.6 "/>
<path class="st0" d="M81.6,266.4v130.4h17.5V266.4h44.8V252H37.1v14.4h43.7v0.8v-0.8H81.6z M80,398.4V268.1H35.4v-17.7h110.1v17.7
	h-44.7v130.4H80z"/>
<g>
	<path class="st0" d="M229.9,266.4c-10.1,0-19.7,2.7-28.8,7.9c-9.1,5.3-16.1,12.4-21.2,21.4c-5.1,9-7.6,18.9-7.6,30
		c0,16.3,5.6,30.1,16.9,41.3c11.3,11.2,24.9,16.8,40.8,16.8c10.6,0,20.4-2.6,29.5-7.8c9-5.2,16.1-12.2,21.2-21.2
		c5.1-9,7.6-18.9,7.6-29.9c0-10.9-2.5-20.7-7.6-29.5c-5.1-8.8-12.2-15.9-21.4-21.1C250,269.1,240.2,266.4,229.9,266.4 M229.3,253.2
		c20.7,0,38.1,6.9,52,20.8c14,13.9,21,30.9,21,51.2c0,20.1-7,37.1-20.9,51c-13.9,14-30.9,21-51,21c-20.3,0-37.4-6.9-51.4-20.9
		c-14-13.9-21-30.7-21-50.5c0-13.2,3.2-25.4,9.5-36.6c6.4-11.3,15-20.1,26-26.4C204.6,256.4,216.5,253.2,229.3,253.2"/>
	<path class="st0" d="M187.4,368.8c-11.7-11.6-17.7-26.2-17.6-43c0-11.4,2.6-21.8,8-31.2c5.3-9.3,12.7-16.8,22.1-22.3
		c9.4-5.5,19.5-8.3,30-8.3v5c-9.7,0-18.8,2.5-27.5,7.6c-8.7,5.1-15.4,11.9-20.3,20.5c-4.9,8.6-7.3,18.1-7.3,28.7
		c0,15.7,5.4,28.7,16.2,39.5c10.9,10.8,23.7,16.1,39,16.1c10.2,0,19.6-2.5,28.3-7.4c8.7-5,15.4-11.7,20.2-20.2
		c4.8-8.6,7.3-18.1,7.3-28.7c0-10.5-2.4-19.9-7.2-28.3c-4.9-8.4-11.6-15.1-20.5-20.2c-8.8-5.1-18.1-7.6-28-7.6v-5
		c10.7,0,21,2.8,30.5,8.3c9.5,5.5,17,12.9,22.3,22.1c5.3,9.2,7.9,19.5,7.9,30.7c0,11.3-2.6,21.8-7.9,31.1
		c-5.3,9.3-12.7,16.7-22.1,22.1c-9.4,5.4-19.7,8.1-30.7,8.1h-0.1C213.4,386.3,199.1,380.4,187.4,368.8 M230.4,399.6
		c-20.9,0-38.8-7.2-53.2-21.6c-14.4-14.3-21.7-31.9-21.7-52.3c0-13.6,3.3-26.2,9.9-37.8c6.6-11.6,15.6-20.8,26.9-27.3
		c11.3-6.6,23.7-9.9,36.9-9.9v5c-12.4,0-23.8,3.1-34.4,9.2c-10.6,6.2-18.9,14.6-25.1,25.5c-6.2,10.9-9.2,22.6-9.2,35.4
		c0,19.2,6.7,35.2,20.2,48.8c13.6,13.5,29.9,20.1,49.7,20.1c19.5,0,35.7-6.7,49.2-20.2c13.5-13.6,20.2-29.8,20.2-49.3
		c0-19.7-6.7-36-20.2-49.4c-13.5-13.4-30.1-20-50.3-20.1v-5c21.3,0,39.4,7.2,53.8,21.5c14.4,14.3,21.7,32.1,21.7,52.9
		c0,20.6-7.2,38.4-21.6,52.8c-14.3,14.4-32,21.7-52.6,21.7H230.4z"/>
</g>
<polygon class="st0" points="440.9,397.7 423.5,304 391.7,397.9 386.7,397.9 353.8,304 337,397.7 318.1,397.7 345.4,251.8 
	354.4,251.8 389.2,358.2 421.2,251.8 430.2,251.8 459.7,397.7 "/>
<path class="st0" d="M387.2,397.1h3.8l32.7-96.4l17.8,96.2h17.2l-29.2-144.2h-7.7l-32.6,108.2l-35.4-108.2h-7.7l-26.9,144.2h17.2
	l17.3-96.1L387.2,397.1z M386.1,398.8l-32-91.6l-16.4,91.3h-20.6L344.7,251H355l34.1,104.4L420.6,251h10.3l29.9,147.5h-19.9v-0.8
	l0.8-0.2l-0.8,0.2v0.8h-0.7l-16.9-91.3l-31,91.6H386.1z"/>
<g>
	<path class="st0" d="M510.9,398.4c-12.6,0-23.4-3-32.3-8.9l7.1-17.8c3.6,2.6,8.1,4.9,13.5,6.6c5.4,1.8,10.2,2.6,14.5,2.6
		c7.6,0,13.7-2.1,18.2-6.2c4.6-4.1,6.9-9.4,6.9-15.8c0-4.8-1.3-9.2-3.8-13.4c-2.5-4.1-9-8.6-19.2-13.5l-11.4-5.3
		c-9.7-4.5-16.4-9.9-20.3-16.1c-3.9-6.2-5.8-13.7-5.8-22.4c0-10.6,3.8-19.4,11.3-26.4c7.5-7,17.1-10.5,28.9-10.5
		c15.7,0,26.7,2.6,32.8,7.6l-5.7,16.9c-2.6-1.9-6.5-3.7-11.9-5.4c-5.3-1.7-10.2-2.6-14.8-2.6c-6.6,0-11.8,1.9-15.6,5.6
		c-3.8,3.8-5.7,8.6-5.7,14.5c0,3.6,0.7,6.9,2,9.9c1.4,3,3.2,5.5,5.7,7.5c2.4,2,7.4,4.8,14.9,8.4l11.7,5.5
		c9.7,4.6,16.5,10.1,20.4,16.5c3.9,6.4,5.9,14.5,5.9,24.3c0,10.7-4.3,19.8-12.9,27.2C536.8,394.7,525.3,398.4,510.9,398.4"/>
</g>
<g>
	<path class="st0" d="M510.9,399.2v-1.6c14.2,0,25.5-3.7,33.9-11c8.4-7.3,12.6-16.1,12.6-26.5c0-9.7-1.9-17.7-5.8-23.9
		c-3.8-6.2-10.5-11.6-20.1-16.1l-11.7-5.5c-7.5-3.6-12.5-6.4-15.1-8.6c-2.5-2.1-4.5-4.7-5.9-7.8c-1.4-3.1-2.1-6.5-2.1-10.2
		c0-6.1,2-11.1,5.9-15c4-4,9.4-5.9,16.2-5.9c4.6,0,9.6,0.9,15,2.7c4.8,1.6,8.5,3.2,11.2,4.9l5.2-15.3c-6-4.7-16.6-7.1-31.8-7.1
		c-11.6,0-21,3.4-28.4,10.2c-7.3,6.9-11,15.4-11,25.8c0,8.6,1.9,15.9,5.6,22c3.7,6,10.3,11.3,20,15.8l11.4,5.3
		c10.3,4.9,16.8,9.4,19.6,13.8c2.6,4.2,4,8.8,4,13.8c0,6.6-2.4,12.2-7.2,16.4c-4.8,4.3-11.1,6.4-18.8,6.4c-4.4,0-9.3-0.9-14.7-2.7
		c-5.1-1.6-9.3-3.7-12.9-6.1l-6.4,16.2c8.7,5.6,19.1,8.4,31.3,8.4V399.2c-12.7,0-23.7-3-32.8-9l-0.6-0.4l7.7-19.4l0.9,0.6
		c3.5,2.6,8,4.8,13.3,6.5c5.3,1.8,10.1,2.6,14.2,2.6c7.4,0,13.3-2,17.7-6c4.4-4,6.6-9,6.6-15.2c0-4.6-1.2-8.9-3.7-12.9
		c-2.4-3.8-8.7-8.3-18.9-13.1l-11.4-5.3c-9.8-4.6-16.7-10-20.7-16.4c-3.9-6.4-5.9-14-5.9-22.9c0-10.8,3.9-19.9,11.5-27
		c7.7-7.2,17.6-10.7,29.5-10.7c15.8,0,26.9,2.5,33.3,7.8l0.4,0.4l-6.3,18.5l-0.9-0.7c-2.5-1.8-6.4-3.6-11.6-5.3
		c-5.2-1.7-10.1-2.6-14.5-2.6c-6.5,0-11.4,1.8-15,5.4c-3.6,3.6-5.4,8.2-5.4,13.9c0,3.5,0.7,6.7,2,9.6c1.3,2.9,3.1,5.3,5.5,7.2
		c2.3,1.9,7.2,4.7,14.7,8.3l11.6,5.6c9.8,4.6,16.8,10.2,20.8,16.8c4,6.5,6,14.8,6,24.8c0,10.9-4.4,20.2-13.1,27.8
		C537.1,395.5,525.4,399.2,510.9,399.2"/>
</g>
<rect x="-76.4" y="71.7" class="st1" width="753.6" height="164.1"/>
<rect x="-76.4" y="410.2" class="st1" width="754.5" height="161.4"/>
<g>
	<path class="st2" d="M703.3,87.3c2.3,0,3.5-1.2,3.5-2.9c0-1.9-1.4-2.8-3.5-2.8H699v5.7H703.3z M696.4,79.3h7.1
		c3.3,0,5.9,1.7,5.9,4.9c0,2.6-1.7,4.2-3.9,4.8l4.5,6.2h-3.2l-4-5.8H699v5.8h-2.5V79.3z M716.4,87.6L716.4,87.6
		c0-7.8-6-14.2-14.1-14.2c-7.9,0-14,6.5-14,14.2v0.1c0,7.8,6,14.1,14,14.1C710.3,101.8,716.4,95.4,716.4,87.6 M686.5,87.7
		L686.5,87.7c0-8.7,7-16,15.9-16c8.9,0,15.9,7.2,15.9,15.9v0.1c0,8.7-7,16-15.9,16C693.4,103.6,686.5,96.4,686.5,87.7"/>
</g>
</svg>
